<svg xmlns="http://www.w3.org/2000/svg" width="213" height="204" viewBox="6 4 213 204">
<path d="M168.0,33.0 L164.0,27.0 L156.0,19.0 L147.0,14.0 L141.0,13.0 L140.0,12.0 L124.0,12.0 L123.0,13.0 L117.0,14.0 L111.0,17.0 L109.0,19.0 L27.0,60.0 L19.0,69.0 L16.0,75.0 L15.0,81.0 L14.0,82.0 L14.0,97.0 L15.0,98.0 L15.0,101.0 L17.0,104.0 L17.0,106.0 L19.0,108.0 L20.0,111.0 L31.0,121.0 L43.0,127.0 L45.0,127.0 L49.0,129.0 L52.0,129.0 L57.0,131.0 L102.0,131.0 L106.0,126.0 L106.0,118.0 L105.0,117.0 L104.0,111.0 L100.0,104.0 L87.0,93.0 L147.0,62.0 L153.0,61.0 L154.0,60.0 L162.0,60.0 L163.0,59.0 L166.0,59.0 L167.0,60.0 L173.0,60.0 L176.0,58.0 L176.0,53.0 Z" fill="#6d28d9" fill-rule="evenodd"/>
<path d="M203.0,98.0 L192.0,88.0 L182.0,83.0 L172.0,81.0 L171.0,80.0 L139.0,80.0 L138.0,81.0 L125.0,81.0 L124.0,82.0 L120.0,82.0 L116.0,84.0 L113.0,90.0 L115.0,100.0 L120.0,110.0 L125.0,115.0 L131.0,118.0 L133.0,120.0 L91.0,141.0 L89.0,143.0 L77.0,149.0 L75.0,149.0 L72.0,151.0 L70.0,151.0 L66.0,153.0 L61.0,153.0 L60.0,154.0 L54.0,154.0 L53.0,153.0 L51.0,153.0 L49.0,154.0 L50.0,161.0 L52.0,164.0 L55.0,174.0 L59.0,182.0 L66.0,190.0 L75.0,196.0 L77.0,196.0 L80.0,198.0 L84.0,198.0 L85.0,199.0 L99.0,199.0 L100.0,198.0 L105.0,197.0 L195.0,152.0 L205.0,141.0 L207.0,137.0 L207.0,135.0 L209.0,131.0 L209.0,127.0 L210.0,126.0 L210.0,116.0 L209.0,115.0 L209.0,111.0 L208.0,110.0 L207.0,105.0 Z" fill="#6d28d9" fill-rule="evenodd"/>
<path d="M 44.0,52.0 L 99.0,87.0 L 74.0,107.0 L 19.0,72.0 Z" fill="#6d28d9" opacity="0.25"/>
<path d="M 134.0,84.0 L 179.0,110.0 L 139.0,142.0 L 94.0,115.0 Z" fill="#6d28d9" opacity="0.20"/>
</svg>