<svg xmlns="http://www.w3.org/2000/svg" width="1140" height="210" viewBox="0 0 1140 210">
<path d="M168.0,33.0 L164.0,27.0 L156.0,19.0 L147.0,14.0 L141.0,13.0 L140.0,12.0 L124.0,12.0 L123.0,13.0 L117.0,14.0 L111.0,17.0 L109.0,19.0 L27.0,60.0 L19.0,69.0 L16.0,75.0 L15.0,81.0 L14.0,82.0 L14.0,97.0 L15.0,98.0 L15.0,101.0 L17.0,104.0 L17.0,106.0 L19.0,108.0 L20.0,111.0 L31.0,121.0 L43.0,127.0 L45.0,127.0 L49.0,129.0 L52.0,129.0 L57.0,131.0 L102.0,131.0 L106.0,126.0 L106.0,118.0 L105.0,117.0 L104.0,111.0 L100.0,104.0 L87.0,93.0 L147.0,62.0 L153.0,61.0 L154.0,60.0 L162.0,60.0 L163.0,59.0 L166.0,59.0 L167.0,60.0 L173.0,60.0 L176.0,58.0 L176.0,53.0 Z" fill="#6d28d9" fill-rule="evenodd"/>
<path d="M203.0,98.0 L192.0,88.0 L182.0,83.0 L172.0,81.0 L171.0,80.0 L139.0,80.0 L138.0,81.0 L125.0,81.0 L124.0,82.0 L120.0,82.0 L116.0,84.0 L113.0,90.0 L115.0,100.0 L120.0,110.0 L125.0,115.0 L131.0,118.0 L133.0,120.0 L91.0,141.0 L89.0,143.0 L77.0,149.0 L75.0,149.0 L72.0,151.0 L70.0,151.0 L66.0,153.0 L61.0,153.0 L60.0,154.0 L54.0,154.0 L53.0,153.0 L51.0,153.0 L49.0,154.0 L50.0,161.0 L52.0,164.0 L55.0,174.0 L59.0,182.0 L66.0,190.0 L75.0,196.0 L77.0,196.0 L80.0,198.0 L84.0,198.0 L85.0,199.0 L99.0,199.0 L100.0,198.0 L105.0,197.0 L195.0,152.0 L205.0,141.0 L207.0,137.0 L207.0,135.0 L209.0,131.0 L209.0,127.0 L210.0,126.0 L210.0,116.0 L209.0,115.0 L209.0,111.0 L208.0,110.0 L207.0,105.0 Z" fill="#6d28d9" fill-rule="evenodd"/>
<path d="M 44.0,52.0 L 99.0,87.0 L 74.0,107.0 L 19.0,72.0 Z" fill="#6d28d9" opacity="0.25"/>
<path d="M 134.0,84.0 L 179.0,110.0 L 139.0,142.0 L 94.0,115.0 Z" fill="#6d28d9" opacity="0.20"/>
<path d="M1082.0,91.0 L1075.0,95.0 L1069.0,104.0 L1068.0,113.0 L1071.0,122.0 L1076.0,127.0 L1082.0,130.0 L1109.0,136.0 L1113.0,141.0 L1113.0,145.0 L1109.0,150.0 L1103.0,152.0 L1089.0,152.0 L1076.0,147.0 L1072.0,147.0 L1068.0,152.0 L1068.0,157.0 L1076.0,162.0 L1079.0,162.0 L1083.0,164.0 L1089.0,164.0 L1090.0,165.0 L1103.0,165.0 L1104.0,164.0 L1113.0,163.0 L1120.0,159.0 L1124.0,155.0 L1127.0,149.0 L1127.0,136.0 L1126.0,133.0 L1120.0,126.0 L1114.0,123.0 L1107.0,121.0 L1096.0,120.0 L1087.0,117.0 L1084.0,114.0 L1083.0,109.0 L1087.0,104.0 L1091.0,102.0 L1107.0,102.0 L1118.0,106.0 L1121.0,106.0 L1125.0,101.0 L1126.0,98.0 L1125.0,95.0 L1113.0,90.0 L1109.0,90.0 L1108.0,89.0 L1089.0,89.0 Z M1044.0,94.0 L1031.0,89.0 L1015.0,89.0 L1005.0,92.0 L999.0,96.0 L991.0,105.0 L987.0,115.0 L987.0,120.0 L986.0,121.0 L986.0,188.0 L989.0,191.0 L997.0,191.0 L999.0,190.0 L1001.0,187.0 L1001.0,158.0 L1002.0,157.0 L1005.0,160.0 L1014.0,164.0 L1017.0,164.0 L1018.0,165.0 L1030.0,165.0 L1037.0,163.0 L1045.0,159.0 L1055.0,148.0 L1059.0,138.0 L1060.0,120.0 L1059.0,119.0 L1058.0,112.0 L1054.0,104.0 L1051.0,100.0 Z M1017.0,102.0 L1029.0,102.0 L1035.0,105.0 L1042.0,112.0 L1045.0,118.0 L1046.0,130.0 L1045.0,131.0 L1044.0,138.0 L1041.0,143.0 L1037.0,147.0 L1029.0,151.0 L1016.0,151.0 L1010.0,148.0 L1004.0,142.0 L1001.0,135.0 L1001.0,119.0 L1004.0,112.0 L1011.0,105.0 Z M885.0,98.0 L882.0,103.0 L880.0,109.0 L880.0,113.0 L879.0,114.0 L879.0,159.0 L881.0,163.0 L883.0,164.0 L891.0,164.0 L894.0,160.0 L894.0,114.0 L897.0,107.0 L900.0,104.0 L905.0,102.0 L908.0,102.0 L913.0,104.0 L917.0,108.0 L919.0,113.0 L919.0,160.0 L922.0,164.0 L931.0,164.0 L934.0,160.0 L934.0,113.0 L937.0,107.0 L940.0,104.0 L945.0,102.0 L948.0,102.0 L953.0,104.0 L956.0,107.0 L959.0,115.0 L959.0,161.0 L962.0,164.0 L971.0,164.0 L973.0,161.0 L973.0,111.0 L969.0,100.0 L967.0,97.0 L961.0,92.0 L953.0,89.0 L940.0,89.0 L931.0,93.0 L929.0,96.0 L926.0,98.0 L920.0,92.0 L916.0,90.0 L913.0,90.0 L912.0,89.0 L900.0,89.0 L892.0,92.0 Z M806.0,96.0 L799.0,104.0 L795.0,112.0 L794.0,119.0 L793.0,120.0 L793.0,134.0 L794.0,135.0 L795.0,142.0 L802.0,154.0 L809.0,160.0 L823.0,165.0 L835.0,165.0 L836.0,164.0 L839.0,164.0 L846.0,161.0 L851.0,157.0 L853.0,158.0 L853.0,162.0 L855.0,164.0 L864.0,164.0 L866.0,162.0 L866.0,115.0 L860.0,102.0 L851.0,94.0 L838.0,89.0 L822.0,89.0 L815.0,91.0 Z M824.0,102.0 L836.0,102.0 L839.0,104.0 L841.0,104.0 L849.0,112.0 L852.0,118.0 L852.0,127.0 L853.0,130.0 L852.0,131.0 L851.0,138.0 L848.0,143.0 L843.0,148.0 L836.0,151.0 L823.0,151.0 L817.0,148.0 L811.0,142.0 L808.0,135.0 L807.0,123.0 L809.0,116.0 L811.0,112.0 L818.0,105.0 Z M584.0,94.0 L581.0,96.0 L573.0,105.0 L569.0,114.0 L569.0,118.0 L568.0,119.0 L568.0,134.0 L569.0,135.0 L569.0,139.0 L572.0,147.0 L577.0,154.0 L583.0,159.0 L591.0,163.0 L599.0,164.0 L600.0,165.0 L619.0,164.0 L633.0,158.0 L636.0,155.0 L636.0,151.0 L631.0,145.0 L627.0,145.0 L623.0,148.0 L616.0,151.0 L602.0,152.0 L595.0,150.0 L592.0,148.0 L586.0,142.0 L583.0,134.0 L584.0,133.0 L637.0,133.0 L639.0,132.0 L641.0,128.0 L641.0,120.0 L640.0,119.0 L640.0,115.0 L638.0,109.0 L634.0,102.0 L624.0,93.0 L613.0,89.0 L597.0,89.0 Z M583.0,119.0 L587.0,110.0 L592.0,105.0 L598.0,102.0 L611.0,102.0 L616.0,104.0 L622.0,109.0 L626.0,117.0 L626.0,120.0 L625.0,121.0 L584.0,121.0 Z M562.0,89.0 L548.0,89.0 L541.0,91.0 L537.0,93.0 L528.0,103.0 L525.0,113.0 L525.0,160.0 L528.0,164.0 L537.0,164.0 L540.0,160.0 L540.0,114.0 L542.0,109.0 L549.0,103.0 L552.0,102.0 L563.0,102.0 L565.0,100.0 L565.0,91.0 Z M453.0,95.0 L446.0,102.0 L442.0,108.0 L439.0,118.0 L439.0,135.0 L440.0,136.0 L441.0,143.0 L446.0,152.0 L455.0,160.0 L461.0,163.0 L468.0,164.0 L469.0,165.0 L485.0,164.0 L497.0,157.0 L499.0,162.0 L501.0,164.0 L509.0,164.0 L511.0,163.0 L512.0,161.0 L512.0,118.0 L509.0,108.0 L503.0,99.0 L495.0,93.0 L484.0,89.0 L467.0,89.0 L460.0,91.0 Z M470.0,102.0 L481.0,102.0 L488.0,105.0 L494.0,111.0 L498.0,120.0 L498.0,134.0 L495.0,141.0 L491.0,146.0 L482.0,151.0 L469.0,151.0 L466.0,150.0 L457.0,142.0 L455.0,139.0 L453.0,132.0 L453.0,121.0 L457.0,111.0 L462.0,106.0 Z M751.0,64.0 L749.0,65.0 L748.0,68.0 L748.0,139.0 L749.0,140.0 L750.0,148.0 L753.0,154.0 L759.0,160.0 L764.0,163.0 L771.0,164.0 L772.0,165.0 L785.0,164.0 L789.0,162.0 L791.0,159.0 L790.0,152.0 L786.0,149.0 L780.0,151.0 L772.0,151.0 L765.0,145.0 L763.0,141.0 L763.0,104.0 L765.0,102.0 L785.0,102.0 L787.0,99.0 L787.0,93.0 L786.0,91.0 L783.0,89.0 L764.0,89.0 L763.0,88.0 L763.0,68.0 L760.0,64.0 Z M361.0,64.0 L359.0,66.0 L359.0,162.0 L362.0,164.0 L370.0,164.0 L372.0,163.0 L373.0,161.0 L373.0,120.0 L376.0,112.0 L383.0,105.0 L390.0,102.0 L398.0,102.0 L405.0,105.0 L410.0,110.0 L413.0,117.0 L413.0,120.0 L414.0,121.0 L414.0,162.0 L417.0,164.0 L425.0,164.0 L428.0,160.0 L428.0,119.0 L427.0,118.0 L426.0,109.0 L419.0,98.0 L414.0,94.0 L402.0,89.0 L388.0,89.0 L379.0,92.0 L374.0,96.0 L373.0,95.0 L373.0,67.0 L372.0,65.0 L370.0,64.0 Z M675.0,65.0 L666.0,70.0 L662.0,74.0 L659.0,79.0 L657.0,86.0 L657.0,96.0 L660.0,105.0 L664.0,110.0 L673.0,116.0 L679.0,118.0 L683.0,118.0 L684.0,119.0 L703.0,121.0 L711.0,124.0 L717.0,130.0 L718.0,139.0 L714.0,146.0 L706.0,150.0 L665.0,150.0 L662.0,149.0 L658.0,152.0 L657.0,154.0 L657.0,159.0 L660.0,163.0 L663.0,164.0 L708.0,164.0 L715.0,162.0 L724.0,157.0 L728.0,153.0 L732.0,146.0 L734.0,133.0 L730.0,121.0 L725.0,115.0 L714.0,109.0 L707.0,107.0 L702.0,107.0 L701.0,106.0 L688.0,105.0 L679.0,102.0 L673.0,96.0 L672.0,88.0 L676.0,81.0 L683.0,77.0 L687.0,77.0 L688.0,76.0 L704.0,76.0 L705.0,77.0 L726.0,78.0 L729.0,75.0 L729.0,67.0 L725.0,64.0 L719.0,64.0 L718.0,63.0 L682.0,63.0 Z M284.0,66.0 L274.0,74.0 L269.0,85.0 L269.0,96.0 L272.0,105.0 L276.0,110.0 L288.0,117.0 L291.0,117.0 L296.0,119.0 L309.0,120.0 L323.0,124.0 L328.0,128.0 L330.0,132.0 L330.0,140.0 L329.0,143.0 L325.0,147.0 L319.0,150.0 L311.0,150.0 L309.0,151.0 L308.0,150.0 L277.0,150.0 L274.0,149.0 L272.0,150.0 L269.0,154.0 L269.0,160.0 L270.0,162.0 L274.0,164.0 L320.0,164.0 L327.0,162.0 L335.0,158.0 L341.0,152.0 L345.0,144.0 L346.0,131.0 L343.0,122.0 L336.0,114.0 L329.0,110.0 L319.0,107.0 L295.0,104.0 L291.0,102.0 L286.0,98.0 L284.0,94.0 L284.0,88.0 L285.0,85.0 L289.0,80.0 L299.0,76.0 L316.0,76.0 L317.0,77.0 L338.0,78.0 L341.0,75.0 L342.0,72.0 L341.0,67.0 L337.0,64.0 L331.0,64.0 L330.0,63.0 L294.0,63.0 Z" fill="#6d28d9" fill-rule="evenodd"/>
</svg>